<?xml version="1.0" encoding="utf-8"?>
<!-- Generator: Adobe Illustrator 25.2.3, SVG Export Plug-In . SVG Version: 6.00 Build 0)  -->
<svg version="1.1" id="Warstwa_1" xmlns="http://www.w3.org/2000/svg" xmlns:xlink="http://www.w3.org/1999/xlink" x="0px" y="0px"
	 width="359px" height="359px" viewBox="0 0 359 359" style="enable-background:new 0 0 359 359;" xml:space="preserve">
<style type="text/css">
	.st0{fill:#BEC4C7;}
	.st1{clip-path:url(#SVGID_2_);}
	.st2{fill:#F5F7F8;}
</style>
<g id="Group_120" transform="translate(-595 -1310)">
	<g id="Group_118" transform="translate(-321.5 609)">
		<rect id="Zrzut_ekranu_2021-01-31_o_20.29.16-2" x="916.5" y="701" class="st0" width="359" height="359"/>
		<g>
			<defs>
				<rect id="SVGID_1_" x="916.5" y="701" width="359" height="359"/>
			</defs>
			<clipPath id="SVGID_2_">
				<use xlink:href="#SVGID_1_"  style="overflow:visible;"/>
			</clipPath>
			<g id="Mask_Group_31" class="st1">
				<ellipse id="Ellipse_13" class="st2" cx="1099.5" cy="1101" rx="180.5" ry="123"/>
			</g>
		</g>
	</g>
	<g id="Group_119" transform="translate(263.713 1300.24)">
		<ellipse id="Ellipse_10" class="st2" cx="510.402" cy="175.575" rx="85.727" ry="118.735"/>
		<path id="Rectangle_99" class="st2" d="M474.222,203.755h72.36c5.316,0,9.625,4.309,9.625,9.625v120.7
			c0,5.316-4.309,9.625-9.625,9.625h-72.36c-5.316,0-9.625-4.309-9.625-9.625v-120.7
			C464.597,208.064,468.906,203.755,474.222,203.755z"/>
		<path id="Path_590" class="st2" d="M438.214,182.319c2.566,19.038-1.66,35.542-9.443,36.865s-16.167-13.032-18.732-32.071
			s1.657-35.542,9.439-36.865C427.26,148.925,435.645,163.282,438.214,182.319z"/>
		<path id="Path_591" class="st2" d="M582.592,182.319c-2.566,19.038,1.66,35.542,9.439,36.865s16.17-13.032,18.736-32.071
			s-1.661-35.542-9.439-36.865C593.55,148.925,585.157,163.282,582.592,182.319z"/>
		<path id="Path_592" class="st2" d="M427.671,170.902c-2.882-19.008-5.765-38.016-8.65-57.023
			c-1.045-6.9-2.055-14.172,0.463-20.682s9.909-11.692,16.445-9.249c-2.617-13.22,12.012-22.986,24.759-27.375
			c21.356-7.353,44.259-11.1,66.663-8.2s44.276,12.8,59.378,29.6c4.781,5.318,8.9,11.358,11.178,18.137
			c4.379,13.039,1.593,27.273-1.235,40.738c-2.243,10.698-4.487,21.396-6.734,32.095c-0.51,2.443-1.082,5.009-2.75,6.863
			c-2.661,2.96-7.142,3.182-11.12,3.192l-127.525,0.272c-7.993,0.017-18.426-1.95-19.481-9.875"/>
	</g>
</g>
</svg>
